<svg width="25" height="25" viewBox="0 0 25 25" fill="none" xmlns="http://www.w3.org/2000/svg">
<path d="M2 13C2 13 6 5 13 5C20 5 24 13 24 13C24 13 20 21 13 21C6 21 2 13 2 13Z" stroke="#030409" stroke-width="1.5" stroke-linecap="round" stroke-linejoin="round"/>
<path d="M13 16C14.6569 16 16 14.6569 16 13C16 11.3431 14.6569 10 13 10C11.3431 10 10 11.3431 10 13C10 14.6569 11.3431 16 13 16Z" stroke="#030409" stroke-width="1.5" stroke-linecap="round" stroke-linejoin="round"/>
<path d="M22.9142 2.90709L2.88752 22.7691" stroke="white" stroke-width="4" stroke-linecap="round"/>
<path d="M23.8287 2.00011L2.00079 23.6485" stroke="#030409" stroke-width="1.5" stroke-linecap="round"/>
</svg>
