<svg width="25" height="24" viewBox="0 0 25 24" fill="none" xmlns="http://www.w3.org/2000/svg">
<path d="M22.5 19C22.5 19.5304 22.2893 20.0391 21.9142 20.4142C21.5391 20.7893 21.0304 21 20.5 21H4.5C3.96957 21 3.46086 20.7893 3.08579 20.4142C2.71071 20.0391 2.5 19.5304 2.5 19V8C2.5 6.9 3.4 6 4.5 6H7.5L9.5 3H15.5L17.5 6H20.5C21.0304 6 21.5391 6.21071 21.9142 6.58579C22.2893 6.96086 22.5 7.46957 22.5 8V19Z" stroke="#030409" stroke-width="1.5" stroke-linecap="round" stroke-linejoin="round" fill="#EEE6FE"/>
<path d="M12.5 17C14.7091 17 16.5 15.2091 16.5 13C16.5 10.7909 14.7091 9 12.5 9C10.2909 9 8.5 10.7909 8.5 13C8.5 15.2091 10.2909 17 12.5 17Z" stroke="#030409" stroke-width="1.5" stroke-linecap="round" stroke-linejoin="round"/>
</svg>
