<svg width="160" height="48" viewBox="0 0 160 48" fill="none" xmlns="http://www.w3.org/2000/svg">
<path d="M153.007 41.5C150.097 41.5 147.832 40.6643 146.212 38.9928C144.592 37.288 143.782 34.9479 143.782 31.9728V22.1948H140.608V15.9771H144.526L149.138 6.5H154.148V15.9771H159.901V22.1948H154.148V30.7192C154.148 31.5549 154.412 32.2068 154.941 32.6748C155.47 33.1428 156.214 33.3768 157.173 33.3768C158.066 33.3768 158.876 33.1762 159.603 32.7751L160 39.7951C159.173 40.2966 158.099 40.7144 156.776 41.0487C155.487 41.3496 154.23 41.5 153.007 41.5Z" fill="#1D2A57"/>
<path d="M124.473 6.60022H135.929V41.0988H124.473V6.60022Z" fill="#1D2A57"/>
<path d="M89.5229 16.328H99.4918V21.4426C101.409 17.5648 104.451 15.6259 108.617 15.6259C111.792 15.6259 114.271 16.7792 116.057 19.0858C117.875 21.359 118.785 24.518 118.785 28.5629V41.0987H108.37V27.5099C108.37 26.0725 108.055 24.9693 107.427 24.2004C106.832 23.4316 105.989 23.0471 104.898 23.0471C104.104 23.0471 103.327 23.3146 102.567 23.8494C101.806 24.3509 101.178 25.0863 100.682 26.0557C100.219 27.0252 99.9877 28.1283 99.9877 29.3652V41.0987H89.5229V16.328Z" fill="#1D2A57"/>
<path d="M65.4546 41.4999C63.3054 41.4999 61.2885 40.9316 59.4038 39.795C57.5522 38.625 56.0644 37.0538 54.9402 35.0815C53.816 33.0758 53.2539 30.8528 53.2539 28.4125C53.2539 26.0056 53.816 23.8327 54.9402 21.8939C56.0644 19.9216 57.5688 18.3838 59.4534 17.2807C61.3381 16.1775 63.3385 15.6259 65.4546 15.6259C67.1739 15.6259 68.761 16.1107 70.2158 17.0801C71.7037 18.0495 72.8279 19.5037 73.5883 21.4426V15.6259H84.0035V41.0987H73.5883V36.4354C71.9351 39.8117 69.2239 41.4999 65.4546 41.4999ZM68.6783 33.5772C70.0009 33.5772 71.1251 33.1092 72.0509 32.1732C73.0097 31.2038 73.5222 30.0672 73.5883 28.7635V28.3623C73.5222 27.0252 72.9932 25.8886 72.0013 24.9526C71.0424 24.0166 69.9348 23.5486 68.6783 23.5486C67.2896 23.5486 66.0993 24.05 65.1074 25.0529C64.1485 26.0223 63.6691 27.1923 63.6691 28.5629C63.6691 29.9669 64.1651 31.1536 65.157 32.1231C66.1489 33.0925 67.3227 33.5772 68.6783 33.5772Z" fill="#1D2A57"/>
<path d="M39.2844 41.4999C36.5401 41.4999 34.0933 40.9483 31.9442 39.8451C29.8281 38.7086 28.1749 37.1708 26.9846 35.232C25.7943 33.2597 25.1991 31.0366 25.1991 28.5629C25.1991 26.0223 25.8108 23.7659 27.0342 21.7936C28.2575 19.8213 29.9107 18.3003 31.9938 17.2305C34.0768 16.1608 36.3913 15.6259 38.9372 15.6259C41.384 15.6259 43.467 16.1775 45.1864 17.2807C46.9388 18.3504 48.2448 19.8213 49.1045 21.6933C49.9641 23.5319 50.394 25.6045 50.394 27.911C50.394 28.5128 50.3609 28.9473 50.2948 29.2148L35.4159 31.1704C35.8127 32.3404 36.4574 33.1928 37.3502 33.7277C38.2429 34.2291 39.4167 34.4798 40.8715 34.4798C43.1199 34.4798 45.5501 33.8948 48.1621 32.7248L49.402 39.444C46.3271 40.8146 42.9545 41.4999 39.2844 41.4999ZM42.7066 24.8523C42.1775 22.7463 40.9211 21.6933 38.9372 21.6933C37.7469 21.6933 36.8046 22.1446 36.1103 23.0471C35.4159 23.9497 35.0522 25.1197 35.0191 26.5572L42.7066 24.8523Z" fill="#1D2A57"/>
<path d="M0 6.60022H10.7128V33.477H22.5663V41.0988H0V6.60022Z" fill="#1D2A57"/>
</svg>
